<svg width="27" height="25" viewBox="0 0 27 25" fill="none" xmlns="http://www.w3.org/2000/svg">
<path d="M16.2778 6.55971V3.78193C16.2778 3.04522 15.9851 2.33868 15.4642 1.81774C14.9433 1.29681 14.2367 1.00415 13.5 1.00415H3.77778C3.04107 1.00415 2.33453 1.29681 1.81359 1.81774C1.29266 2.33868 1 3.04522 1 3.78193V20.4486C1 21.1853 1.29266 21.8918 1.81359 22.4128C2.33453 22.9337 3.04107 23.2264 3.77778 23.2264H13.5C14.2367 23.2264 14.9433 22.9337 15.4642 22.4128C15.9851 21.8918 16.2778 21.1853 16.2778 20.4486V17.6708" stroke="white" strokeWidth="2" strokeLinecap="round" strokeLinejoin="round"/>
<path d="M9.3335 12.1153H26.0002M26.0002 12.1153L21.8335 7.94861M26.0002 12.1153L21.8335 16.2819" stroke="white" strokeWidth="2" strokeLinecap="round" strokeLinejoin="round"/>
</svg>
