<svg width="26" height="27" viewBox="0 0 26 27" fill="none" xmlns="http://www.w3.org/2000/svg">
<path d="M14.5742 14.7402C13.8717 14.2155 13.1143 13.8135 12.3018 13.5342C11.4893 13.2549 10.6387 13.1152 9.75 13.1152C9.00521 13.1152 8.28581 13.2126 7.5918 13.4072C6.89779 13.6019 6.25033 13.8727 5.64941 14.2197C5.0485 14.5667 4.5026 14.9899 4.01172 15.4893C3.52083 15.9886 3.09766 16.5387 2.74219 17.1396C2.38672 17.7406 2.11165 18.388 1.91699 19.082C1.72233 19.776 1.625 20.4954 1.625 21.2402H0C0 20.2246 0.148112 19.2471 0.444336 18.3076C0.74056 17.3682 1.16797 16.5007 1.72656 15.7051C2.28516 14.9095 2.94531 14.2028 3.70703 13.585C4.46875 12.9671 5.33203 12.4805 6.29688 12.125C5.82292 11.8288 5.39974 11.4818 5.02734 11.084C4.65495 10.6862 4.33333 10.2461 4.0625 9.76367C3.79167 9.28125 3.59277 8.77767 3.46582 8.25293C3.33887 7.72819 3.26693 7.18229 3.25 6.61523C3.25 5.7181 3.41927 4.87598 3.75781 4.08887C4.09635 3.30176 4.56185 2.61621 5.1543 2.03223C5.74674 1.44824 6.43652 0.982747 7.22363 0.635742C8.01074 0.288737 8.85286 0.115234 9.75 0.115234C10.6471 0.115234 11.4893 0.284505 12.2764 0.623047C13.0635 0.961589 13.749 1.42708 14.333 2.01953C14.917 2.61198 15.3825 3.30176 15.7295 4.08887C16.0765 4.87598 16.25 5.7181 16.25 6.61523C16.25 7.17383 16.1823 7.71973 16.0469 8.25293C15.9115 8.78613 15.7083 9.28971 15.4375 9.76367C15.1667 10.2376 14.8451 10.6735 14.4727 11.0713C14.1003 11.4691 13.6729 11.8203 13.1904 12.125C13.6982 12.3197 14.1764 12.5482 14.625 12.8105V14.7402H14.5742ZM4.875 6.61523C4.875 7.29232 5.00195 7.92285 5.25586 8.50684C5.50977 9.09082 5.85677 9.6071 6.29688 10.0557C6.73698 10.5042 7.25326 10.8555 7.8457 11.1094C8.43815 11.3633 9.07292 11.4902 9.75 11.4902C10.4186 11.4902 11.0492 11.3633 11.6416 11.1094C12.234 10.8555 12.7503 10.5085 13.1904 10.0684C13.6305 9.62825 13.9818 9.11198 14.2441 8.51953C14.5065 7.92708 14.6335 7.29232 14.625 6.61523C14.625 5.94661 14.498 5.31608 14.2441 4.72363C13.9902 4.13119 13.6432 3.61491 13.2031 3.1748C12.763 2.7347 12.2425 2.38346 11.6416 2.12109C11.0407 1.85872 10.4102 1.73177 9.75 1.74023C9.07292 1.74023 8.44238 1.86719 7.8584 2.12109C7.27441 2.375 6.75814 2.72201 6.30957 3.16211C5.861 3.60221 5.50977 4.12272 5.25586 4.72363C5.00195 5.32454 4.875 5.95508 4.875 6.61523ZM26 16.3652V26.1152H13V16.3652H16.25V13.1152H22.75V16.3652H26ZM17.875 16.3652H21.125V14.7402H17.875V16.3652ZM24.375 21.2402H22.75V22.8652H21.125V21.2402H17.875V22.8652H16.25V21.2402H14.625V24.4902H24.375V21.2402ZM24.375 17.9902H14.625V19.6152H24.375V17.9902Z" fill="white"/>
</svg>
